<svg width="58" height="50" viewBox="0 0 58 50" fill="none" xmlns="http://www.w3.org/2000/svg">
<path d="M30.1481 1.15077C29.8152 0.891058 29.4052 0.75 28.983 0.75C28.5609 0.75 28.1508 0.891058 27.818 1.15077L0.875 22.1613L3.20506 25.1082L6.5 22.5391V45.7499C6.50203 46.7438 6.89777 47.6965 7.60059 48.3993C8.30342 49.1021 9.25606 49.4979 10.25 49.4999H47.75C48.744 49.4981 49.6968 49.1024 50.3996 48.3995C51.1025 47.6967 51.4982 46.7439 51.5 45.7499V22.5561L54.7949 25.1249L57.125 22.1778L30.1481 1.15077ZM32.75 45.7499H25.25V30.7499H32.75V45.7499ZM36.5 45.7499V30.7499C36.4989 29.7557 36.1034 28.8025 35.4004 28.0995C34.6974 27.3965 33.7442 27.001 32.75 26.9999H25.25C24.2557 27.0009 23.3025 27.3963 22.5994 28.0993C21.8964 28.8024 21.501 29.7556 21.5 30.7499V45.7499H10.25V19.6152L29 5.00896L47.75 19.6349V45.7499H36.5Z" fill="#001A8F"/>
</svg>
