<svg width="54" height="54" viewBox="0 0 54 54" fill="none" xmlns="http://www.w3.org/2000/svg">
<path d="M27 0.75C20.0641 0.833918 13.436 3.62648 8.53123 8.53123C3.62648 13.436 0.833918 20.0641 0.75 27C0.833918 33.9359 3.62648 40.564 8.53123 45.4688C13.436 50.3735 20.0641 53.1661 27 53.25C33.9359 53.1661 40.564 50.3735 45.4688 45.4688C50.3735 40.564 53.1661 33.9359 53.25 27C53.1661 20.0641 50.3735 13.436 45.4688 8.53123C40.564 3.62648 33.9359 0.833918 27 0.75V0.75ZM42 28.875H28.875V42H25.125V28.875H12V25.125H25.125V12H28.875V25.125H42V28.875Z" fill="#001A8F"/>
</svg>
