<svg width="46" height="28" viewBox="0 0 46 28" fill="none" xmlns="http://www.w3.org/2000/svg">
<path d="M45.25 0.875H32.125V4.625H38.8563L24.625 18.8563L16.5812 10.7937C16.4069 10.618 16.1996 10.4785 15.9711 10.3833C15.7426 10.2881 15.4975 10.2391 15.25 10.2391C15.0025 10.2391 14.7574 10.2881 14.5289 10.3833C14.3004 10.4785 14.0931 10.618 13.9187 10.7937L0.25 24.4813L2.89375 27.125L15.25 14.7687L23.2938 22.8312C23.4681 23.007 23.6754 23.1465 23.9039 23.2417C24.1324 23.3369 24.3775 23.3859 24.625 23.3859C24.8725 23.3859 25.1176 23.3369 25.3461 23.2417C25.5746 23.1465 25.7819 23.007 25.9562 22.8312L41.5 7.26875V14H45.25V0.875Z" fill="#001A8F"/>
</svg>
