<svg width="54" height="54" viewBox="0 0 54 54" fill="none" xmlns="http://www.w3.org/2000/svg">
<path d="M27 0.75C21.8083 0.75 16.7331 2.28954 12.4163 5.17392C8.0995 8.05831 4.73497 12.158 2.74817 16.9546C0.761374 21.7511 0.241536 27.0291 1.2544 32.1211C2.26726 37.2131 4.76733 41.8904 8.43846 45.5616C12.1096 49.2327 16.7869 51.7327 21.8789 52.7456C26.9709 53.7585 32.2489 53.2386 37.0455 51.2518C41.842 49.265 45.9417 45.9005 48.8261 41.5837C51.7105 37.2669 53.25 32.1918 53.25 27C53.25 20.0381 50.4844 13.3613 45.5616 8.43845C40.6387 3.51562 33.9619 0.75 27 0.75ZM23.25 37.4827L13.875 28.1077L16.8574 25.125L23.25 31.5173L37.1438 17.625L40.1357 20.5986L23.25 37.4827Z" fill="#001A8F"/>
</svg>
