<svg width="58" height="42" viewBox="0 0 58 42" fill="none" xmlns="http://www.w3.org/2000/svg">
<path d="M57.0127 20.3625C54.8074 14.6581 50.9789 9.72491 46.0004 6.17266C41.022 2.62042 35.1117 0.604824 29.0002 0.375C22.8886 0.604824 16.9784 2.62042 11.9999 6.17266C7.02146 9.72491 3.19298 14.6581 0.987679 20.3625C0.838742 20.7745 0.838742 21.2255 0.987679 21.6375C3.19298 27.3419 7.02146 32.2751 11.9999 35.8273C16.9784 39.3796 22.8886 41.3952 29.0002 41.625C35.1117 41.3952 41.022 39.3796 46.0004 35.8273C50.9789 32.2751 54.8074 27.3419 57.0127 21.6375C57.1616 21.2255 57.1616 20.7745 57.0127 20.3625ZM29.0002 33.1875C26.5897 33.1875 24.2334 32.4727 22.2292 31.1335C20.2249 29.7944 18.6628 27.8909 17.7404 25.664C16.818 23.437 16.5766 20.9865 17.0469 18.6223C17.5171 16.2582 18.6779 14.0866 20.3823 12.3821C22.0868 10.6777 24.2584 9.51694 26.6225 9.04668C28.9867 8.57642 31.4372 8.81778 33.6641 9.74022C35.8911 10.6627 37.7945 12.2248 39.1337 14.229C40.4729 16.2332 41.1877 18.5895 41.1877 21C41.1827 24.2308 39.8971 27.3279 37.6126 29.6124C35.328 31.8969 32.231 33.1825 29.0002 33.1875V33.1875Z" fill="#001A8F"/>
</svg>
