<svg width="59" height="54" viewBox="0 0 59 54" fill="none" xmlns="http://www.w3.org/2000/svg">
<path d="M55.2505 30.75H32.7505C31.7562 30.7489 30.8031 30.3534 30.1001 29.6504C29.397 28.9474 29.0016 27.9942 29.0005 27V4.5C29.0014 3.50574 29.3969 2.55249 30.0999 1.84945C30.8029 1.1464 31.7562 0.750993 32.7505 0.75H55.2505C56.2447 0.751141 57.1978 1.1466 57.9008 1.84961C58.6039 2.55262 58.9993 3.50579 59.0005 4.5V27C58.9991 27.9942 58.6036 28.9472 57.9006 29.6502C57.1977 30.3531 56.2446 30.7487 55.2505 30.75ZM32.7505 4.5V27H55.2523L55.2505 4.5H32.7505ZM27.1255 53.25H23.3755V45.75C23.3891 45.0076 23.2529 44.27 22.975 43.5814C22.6971 42.8928 22.2833 42.2673 21.7582 41.7422C21.2332 41.2171 20.6076 40.8033 19.919 40.5255C19.2304 40.2476 18.4929 40.1114 17.7505 40.125H10.2505C9.50802 40.1114 8.77047 40.2476 8.08186 40.5255C7.39326 40.8033 6.76773 41.2171 6.24267 41.7422C5.7176 42.2673 5.30377 42.8928 5.02591 43.5814C4.74804 44.27 4.61184 45.0076 4.62545 45.75V53.25H0.875452V45.75C0.863274 44.5155 1.09745 43.2909 1.56427 42.148C2.0311 41.0051 2.7212 39.9667 3.59418 39.0937C4.46717 38.2207 5.50551 37.5306 6.64844 37.0638C7.79136 36.597 9.01592 36.3628 10.2505 36.375H17.7505C18.985 36.3628 20.2095 36.597 21.3525 37.0638C22.4954 37.5306 23.5337 38.2207 24.4067 39.0937C25.2797 39.9667 25.9698 41.0051 26.4366 42.148C26.9035 43.2909 27.1376 44.5155 27.1255 45.75V53.25ZM14.0005 17.625C15.4923 17.625 16.923 18.2176 17.9779 19.2725C19.0328 20.3274 19.6255 21.7582 19.6255 23.25C19.6255 24.7418 19.0328 26.1726 17.9779 27.2275C16.923 28.2824 15.4923 28.875 14.0005 28.875C12.5086 28.875 11.0779 28.2824 10.023 27.2275C8.96808 26.1726 8.37545 24.7418 8.37545 23.25C8.37545 21.7582 8.96808 20.3274 10.023 19.2725C11.0779 18.2176 12.5086 17.625 14.0005 17.625M14.0005 13.875C11.514 13.875 9.12948 14.8627 7.37133 16.6209C5.61317 18.379 4.62545 20.7636 4.62545 23.25C4.62545 25.7364 5.61317 28.121 7.37133 29.8791C9.12948 31.6373 11.514 32.625 14.0005 32.625C16.4869 32.625 18.8714 31.6373 20.6296 29.8791C22.3877 28.121 23.3755 25.7364 23.3755 23.25C23.3755 20.7636 22.3877 18.379 20.6296 16.6209C18.8714 14.8627 16.4869 13.875 14.0005 13.875V13.875Z" fill="#001A8F"/>
</svg>
