<svg width="54" height="54" viewBox="0 0 54 54" fill="none" xmlns="http://www.w3.org/2000/svg">
<path d="M47.1542 43.7433C49.8462 40.5035 51.7184 36.6631 52.6123 32.5468C53.5063 28.4305 53.3958 24.1595 52.2901 20.0949C51.1845 16.0304 49.1162 12.2919 46.2603 9.19573C43.4043 6.09953 39.8447 3.73667 35.8825 2.30701C31.9203 0.877355 27.6721 0.422958 23.4972 0.982252C19.3222 1.54155 15.3434 3.09808 11.8972 5.5202C8.451 7.94232 5.63882 11.1588 3.69852 14.8975C1.75822 18.6362 0.746864 22.7873 0.750007 26.9995C0.751476 33.1236 2.90965 39.0516 6.84582 43.7433L6.80832 43.7744C6.93957 43.9328 7.08957 44.0682 7.22494 44.2229C7.39369 44.4171 7.57445 44.5979 7.74995 44.7869C8.27495 45.3556 8.81382 45.9029 9.3812 46.4181C9.55276 46.574 9.73069 46.7204 9.90619 46.8713C10.5062 47.3886 11.1219 47.8786 11.7624 48.3363C11.8451 48.3948 11.9184 48.4662 12.0017 48.5249V48.5011C16.3931 51.5914 21.6319 53.2499 27.0017 53.2499C32.3715 53.2499 37.6102 51.5914 42.0017 48.5011V48.5245C42.0849 48.4658 42.1583 48.3944 42.2409 48.3359C42.8807 47.8782 43.4972 47.3883 44.0972 46.871C44.2727 46.721 44.4506 46.5736 44.6222 46.4178C45.1894 45.9023 45.7284 45.355 46.2534 44.7865C46.4284 44.5979 46.6086 44.4168 46.7784 44.2225C46.9133 44.0678 47.0638 43.9324 47.1951 43.774L47.1542 43.7433ZM27 11.9995C28.6688 11.9995 30.3001 12.4944 31.6876 13.4215C33.0752 14.3486 34.1566 15.6664 34.7952 17.2081C35.4339 18.7499 35.6009 20.4464 35.2754 22.0831C34.9498 23.7198 34.1462 25.2232 32.9662 26.4032C31.7862 27.5832 30.2828 28.3868 28.6461 28.7124C27.0094 29.038 25.3129 28.8709 23.7711 28.2322C22.2294 27.5936 20.9116 26.5122 19.9845 25.1246C19.0574 23.7371 18.5625 22.1058 18.5625 20.437C18.5625 18.1992 19.4515 16.0531 21.0338 14.4708C22.6161 12.8885 24.7622 11.9995 27 11.9995ZM12.0133 43.7433C12.0457 41.2813 13.0461 38.9311 14.7981 37.2012C16.5502 35.4712 18.9128 34.5007 21.375 34.4995H32.625C35.0872 34.5007 37.4498 35.4713 39.2018 37.2012C40.9538 38.9312 41.9543 41.2813 41.9867 43.7433C37.8745 47.4488 32.5354 49.4995 27 49.4995C21.4646 49.4995 16.1255 47.4488 12.0133 43.7433Z" fill="#001A8F"/>
</svg>
