<svg width="54" height="54" viewBox="0 0 54 54" fill="none" xmlns="http://www.w3.org/2000/svg">
<path d="M27 0.75C21.8083 0.75 16.7331 2.28954 12.4163 5.17392C8.0995 8.05831 4.73497 12.158 2.74817 16.9546C0.761374 21.7511 0.241536 27.0291 1.2544 32.1211C2.26726 37.2131 4.76733 41.8904 8.43846 45.5616C12.1096 49.2327 16.7869 51.7327 21.8789 52.7456C26.9709 53.7585 32.2489 53.2386 37.0455 51.2518C41.842 49.265 45.9417 45.9005 48.8261 41.5837C51.7105 37.2669 53.25 32.1918 53.25 27C53.25 20.0381 50.4844 13.3613 45.5616 8.43845C40.6387 3.51562 33.9619 0.75 27 0.75ZM27 43.875C26.4438 43.875 25.9 43.71 25.4375 43.401C24.975 43.092 24.6145 42.6527 24.4016 42.1388C24.1887 41.6249 24.133 41.0594 24.2416 40.5138C24.3501 39.9682 24.6179 39.4671 25.0113 39.0738C25.4046 38.6804 25.9057 38.4126 26.4513 38.304C26.9969 38.1955 27.5624 38.2512 28.0763 38.4641C28.5902 38.677 29.0295 39.0374 29.3385 39.5C29.6476 39.9625 29.8125 40.5062 29.8125 41.0625C29.8125 41.8084 29.5162 42.5238 28.9887 43.0512C28.4613 43.5787 27.7459 43.875 27 43.875ZM29.1414 29.3363V34.0264H24.9227V25.125H28.9071C30.0888 25.125 31.222 24.6556 32.0576 23.82C32.8932 22.9844 33.3626 21.8511 33.3626 20.6694C33.3626 19.4877 32.8932 18.3545 32.0576 17.5189C31.222 16.6833 30.0888 16.2139 28.9071 16.2139H26.0946C24.9139 16.2152 23.7821 16.6848 22.9472 17.5196C22.1124 18.3545 21.6428 19.4864 21.6415 20.667V21.8625H17.4227V20.6668C17.4255 18.3682 18.3402 16.1646 19.966 14.5397C21.5918 12.9148 23.796 12.0014 26.0946 12H28.9071C31.1872 11.9983 33.3762 12.895 35 14.4957C36.6237 16.0965 37.5515 18.2725 37.5823 20.5524C37.6131 22.8324 36.7445 25.0326 35.1647 26.6767C33.5848 28.3208 31.4208 29.2763 29.1414 29.3363Z" fill="#001A8F"/>
</svg>
