<svg width="50" height="56" viewBox="0 0 50 56" fill="none" xmlns="http://www.w3.org/2000/svg">
<path d="M48.8256 35.1744L43.75 30.0986V23.375C43.744 18.7287 42.0154 14.2496 38.8984 10.8039C35.7814 7.35814 31.4975 5.19056 26.875 4.72025V0.875H23.125V4.72025C18.5025 5.19056 14.2186 7.35814 11.1016 10.8039C7.98465 14.2496 6.25602 18.7287 6.25 23.375V30.0986L1.17437 35.1744C1.00019 35.3484 0.862022 35.5551 0.767757 35.7825C0.673491 36.01 0.624981 36.2538 0.625 36.5V42.125C0.625 42.6223 0.822544 43.0992 1.17417 43.4508C1.52581 43.8025 2.00272 44 2.5 44H15.625V45.875C15.625 48.3614 16.6127 50.746 18.3709 52.5041C20.129 54.2623 22.5136 55.25 25 55.25C27.4864 55.25 29.871 54.2623 31.6291 52.5041C33.3873 50.746 34.375 48.3614 34.375 45.875V44H47.5C47.9973 44 48.4742 43.8025 48.8258 43.4508C49.1775 43.0992 49.375 42.6223 49.375 42.125V36.5C49.375 36.2538 49.3265 36.01 49.2322 35.7825C49.138 35.5551 48.9998 35.3484 48.8256 35.1744ZM30.625 45.875C30.625 47.3668 30.0324 48.7976 28.9775 49.8525C27.9226 50.9074 26.4918 51.5 25 51.5C23.5082 51.5 22.0774 50.9074 21.0225 49.8525C19.9676 48.7976 19.375 47.3668 19.375 45.875V44H30.625V45.875Z" fill="#001A8F"/>
</svg>
